<svg viewBox="0 0 47 47" xmlns="http://www.w3.org/2000/svg">
	<path
		fill="#00CC82"
		d="M23.5 3.644A19.726 19.726 0 0 0 9.46 9.46 19.726 19.726 0 0 0 3.644 23.5c0 5.304 2.065 10.29 5.816 14.04a19.726 19.726 0 0 0 14.04 5.816c5.304 0 10.29-2.065 14.04-5.816a19.726 19.726 0 0 0 5.816-14.04c0-5.304-2.065-10.29-5.816-14.04A19.726 19.726 0 0 0 23.5 3.644M23.5 47a23.346 23.346 0 0 1-16.617-6.883A23.346 23.346 0 0 1 0 23.5 23.347 23.347 0 0 1 6.883 6.883 23.346 23.346 0 0 1 23.5 0a23.346 23.346 0 0 1 16.617 6.883A23.346 23.346 0 0 1 47 23.5a23.346 23.346 0 0 1-6.883 16.617A23.346 23.346 0 0 1 23.5 47"
	/>
	<path
		fill="#00CC82"
		d="M22.15 29.973c0 4.495-1.977 6.493-6.095 6.493-4.084 0-6.06-1.998-6.06-6.493V12.425h4.776V30.34c0 1.532.494 2.064 1.317 2.064.857 0 1.35-.532 1.35-2.064V12.425h4.711v17.548ZM37.006 35.655h-4.777V17.742c0-1.532-.494-2.065-1.317-2.065-.857 0-1.35.533-1.35 2.065v17.913H24.85V18.108c0-4.495 1.976-6.493 6.094-6.493 4.084 0 6.06 1.998 6.06 6.493v17.547Z"
	/>
</svg>
