<svg viewBox="0 0 254.727 108" xmlns="http://www.w3.org/2000/svg">
	<g fill="none" fillRule="nonzero">
		<path
			fill="#FFF"
			d="M142.772 36.853V0h8.265c7.444 0 10.932 2.667 10.932 10.06 0 3.849-1.542 6.262-4.107 7.545v.101c3.235 1.334 4.518 4.108 4.518 8.316 0 9.087-4.72 10.831-11.293 10.831h-8.315Zm8.67-22.016c2.206 0 2.875-1.384 2.875-4.209 0-2.824-1.08-3.797-2.667-3.797h-1.592v8.006h1.384Zm.467 15.191c1.845 0 2.718-1.08 2.718-4.467 0-3.387-.822-4.569-2.977-4.569h-1.592v9.036h1.851ZM178.134 36.853l-2.926-14.268h-1.693v14.268h-7.394V0h8.986c6.47 0 10.01 2.414 10.01 10.268 0 4.417-1.385 6.983-3.49 8.417l4.468 18.174h-7.955l-.006-.006Zm-3.95-20.48c2.363 0 3.134-1.182 3.134-5.131 0-4.93-2.003-4.93-3.134-4.93h-.67v10.061h.67ZM200.775 36.853l-.872-7.955h-4.569l-.77 7.955h-7.597L192.661 0h9.549l6.11 36.853h-7.545Zm-4.777-14.522h3.184l-1.541-13.858h-.259l-1.384 13.858ZM223.821 36.853l-6.983-19.405h-.101v19.405h-6.262V0h7.084l5.75 16.682h.101V0h6.364v36.853zM234.45 36.853V0h7.854c8.417 0 12.423 4.006 12.423 18.067 0 11.5-1.744 18.786-11.754 18.786H234.45Zm8.979-7.078c2.718 0 3.488-3.438 3.488-11.703 0-9.65-1.643-10.983-3.95-10.983h-.77v22.686h1.232ZM136.003 36.724h-19.918v3.348h-4.613V28.425h4.613v3.348h19.918zM136.003 19.001h-10.42v2.903h10.42v4.951h-24.526v-4.951h9.7v-2.903h-9.7v-4.884h24.526v4.884zM136.003 11.382h-24.526V.383h4.614v6.048h5.058V1.575h4.406v4.85h5.84V.039h4.614v11.343zM85.517 80.509 83.26 58.746h-.101l-1.795 21.763H73.87l-5.75-36.853h7.134l2.206 21.403h.101l2.256-21.403h7.033l2.515 21.403h.101l1.953-21.403h7.084l-5.441 36.853h-7.545zM99.633 62.133c0-13.858 2.515-18.888 10.162-18.888 7.646 0 10.161 5.03 10.161 18.888 0 12.266-2.104 18.787-10.161 18.787-8.057 0-10.162-6.521-10.162-18.787Zm12.525 0c0-9.858-.512-12.164-2.363-12.164s-2.363 2.312-2.363 12.164c0 10.831.821 12.322 2.363 12.322 1.541 0 2.363-1.491 2.363-12.322ZM135.255 80.51l-2.926-14.27h-1.694v14.27h-7.393V43.655h8.986c6.47 0 10.009 2.413 10.009 10.268 0 4.417-1.384 6.982-3.488 8.417l4.467 18.174h-7.956l-.005-.006Zm-3.95-20.481c2.363 0 3.134-1.182 3.134-5.132 0-4.928-2.003-4.928-3.134-4.928h-.67v10.06h.67ZM158.357 80.509 154.66 64.8l-1.384 3.899v11.804h-7.235V43.65h7.235v13.295h.101l4.518-13.295h7.394l-5.441 13.245 6.003 23.614h-7.494zM178.066 53.564c-.152-1.902-.613-4.006-2.515-4.006-1.333 0-1.845.923-1.845 2.104 0 6.881 11.393 8.879 11.393 19.817 0 5.851-3.595 9.446-9.598 9.446-6.775 0-8.879-3.595-9.29-9.958l6.882-.512c.202 2.824.67 4.259 2.515 4.259 1.282 0 2.104-.923 2.104-2.723 0-7.033-11.09-9.087-11.09-19.71 0-5.39 2.977-9.036 8.828-9.036 6.983 0 8.777 4.569 9.188 9.807l-6.572.512ZM200.342 80.509V64.851h-4.361v15.658h-7.444V43.656h7.444v14.578h4.361V43.656h7.342v36.853zM210.97 62.133c0-13.858 2.515-18.888 10.161-18.888 7.647 0 10.162 5.03 10.162 18.888 0 12.266-2.105 18.787-10.162 18.787s-10.161-6.521-10.161-18.787Zm12.524 0c0-9.858-.512-12.164-2.363-12.164-1.85 0-2.363 2.312-2.363 12.164 0 10.831.822 12.322 2.363 12.322 1.542 0 2.363-1.491 2.363-12.322ZM234.584 80.51V43.655h8.215c7.292 0 11.14 3.336 11.14 11.343 0 7.235-3.595 11.652-11.09 11.652h-.821V80.51h-7.444Zm8.519-20.481c1.592 0 3.027-1.182 3.027-4.98 0-3.798-1.283-4.467-3.027-4.467h-1.08v9.447h1.08ZM33.168 28.672C14.848 28.672 0 43.521 0 61.835c0 18.314 14.848 33.168 33.168 33.168s33.168-14.848 33.168-33.168-14.848-33.168-33.168-33.168v.005Zm-2.082 43.054c0 6.814-3.027 9.84-9.34 9.84s-9.289-3.026-9.289-9.84V45.124h7.32v27.16c0 2.323.76 3.128 2.02 3.128s2.07-.81 2.07-3.129V45.124h7.22v26.602ZM53.8 80.312h-7.32V53.153c0-2.324-.76-3.128-2.02-3.128s-2.07.81-2.07 3.128v27.16H35.17V53.71c0-6.813 3.027-9.84 9.34-9.84s9.29 3.027 9.29 9.84v26.602Z"
		></path>
		<path
			fill="#00CC82"
			d="M71.08 107.752c-.575.017-1.104.023-1.588.023 0-.163.017-.281.057-.338.04-.062.118-.1.236-.112.422-.073.726-.186.906-.327.18-.14.304-.337.371-.59.068-.248.118-.642.147-1.187.106-2.234.157-4.113.157-5.638 0-2.127-.05-3.956-.157-5.475-.045-.546-.107-.922-.18-1.13a.739.739 0 0 0-.44-.45c-.219-.09-.601-.164-1.142-.226 0-.197.023-.332.068-.405.045-.073.14-.112.293-.112.287.016.506.022.658.022.152 0 .371.006.658.023.844.028 1.491.045 1.947.045.709-.017 1.412-.029 2.104-.045l1.469-.023c0 .163-.017.281-.057.338-.039.056-.123.095-.258.112-.44.073-.766.18-.985.315-.22.135-.371.338-.45.602-.079.265-.124.659-.124 1.187v5.092c0 1.148.045 3.05.135 5.706.017.5.079.877.191 1.142a.935.935 0 0 0 .54.534c.248.09.608.135 1.075.135.827 0 1.514-.135 2.048-.405.535-.27.996-.737 1.379-1.39.382-.658.742-1.58 1.074-2.773.18 0 .304.01.372.033.067.023.101.08.101.17l-.067.905a53.372 53.372 0 0 0-.17 2.026c-.05.765-.084 1.4-.1 1.913-.017.135-.051.23-.102.28-.05.052-.146.08-.281.08l-2.92-.045a294.674 294.674 0 0 0-4.524-.045c-.68 0-1.497.017-2.442.045v-.012ZM85.714 107.302a4.864 4.864 0 0 1-1.88-1.834c-.461-.782-.692-1.682-.692-2.695a5.3 5.3 0 0 1 .749-2.774 5.484 5.484 0 0 1 2.014-1.98 5.374 5.374 0 0 1 2.717-.726c.968 0 1.835.214 2.617.647a4.817 4.817 0 0 1 1.845 1.79c.45.759.681 1.603.681 2.52 0 1.069-.236 2.042-.715 2.909a5.327 5.327 0 0 1-1.946 2.048 5.23 5.23 0 0 1-2.752.748c-1.012 0-1.845-.22-2.638-.658v.005Zm4.422-1.018c.287-.557.428-1.379.428-2.464 0-.951-.085-1.857-.26-2.73-.174-.866-.45-1.575-.826-2.126-.377-.551-.833-.827-1.356-.827-.591 0-1.036.259-1.345.782-.31.523-.467 1.333-.467 2.43 0 .935.096 1.846.281 2.73.186.883.473 1.609.861 2.182.383.574.855.861 1.412.861.557 0 .98-.281 1.266-.838h.006ZM97.912 107.302a4.864 4.864 0 0 1-1.88-1.834c-.46-.782-.692-1.682-.692-2.695a5.3 5.3 0 0 1 .749-2.774 5.484 5.484 0 0 1 2.014-1.98 5.374 5.374 0 0 1 2.718-.726c.967 0 1.834.214 2.616.647a4.817 4.817 0 0 1 1.845 1.79c.45.759.681 1.603.681 2.52 0 1.069-.236 2.042-.714 2.909a5.327 5.327 0 0 1-1.947 2.048 5.23 5.23 0 0 1-2.751.748c-1.013 0-1.846-.22-2.64-.658v.005Zm4.422-1.018c.287-.557.428-1.379.428-2.464 0-.951-.085-1.857-.26-2.73-.173-.866-.45-1.575-.826-2.126-.377-.551-.833-.827-1.356-.827-.59 0-1.035.259-1.345.782-.31.523-.467 1.333-.467 2.43 0 .935.096 1.846.281 2.73.186.883.473 1.609.861 2.182.383.574.856.861 1.413.861s.979-.281 1.266-.838h.005ZM107.077 107.437a.25.25 0 0 1 .192-.112 2.64 2.64 0 0 0 .635-.203.593.593 0 0 0 .282-.36c.05-.163.078-.4.078-.703V93.86c0-.36-.033-.653-.1-.872a1.106 1.106 0 0 0-.36-.535c-.175-.135-.429-.27-.76-.405a.48.48 0 0 1 .033-.281c.04-.068.124-.13.26-.192l3.347-1.31c.197-.074.36-.124.49-.147.129-.022.275-.034.438-.034a6.79 6.79 0 0 0-.146 1.007c-.023.338-.034.743-.034 1.21v13.808c0 .315.028.557.09.714a.608.608 0 0 0 .349.349c.174.073.439.135.805.18v.022c0 .152-.023.254-.068.304-.045.05-.146.08-.293.08h-.517a49.885 49.885 0 0 0-2.014-.046c-.53.017-1.058.023-1.587.023-.287.016-.68.022-1.176.022 0-.152.017-.259.056-.315v-.006Zm8.181.225a1.29 1.29 0 0 1-.472-.315c-.152-.152-.327-.394-.518-.725l-2.673-4.3 2.15-1.968c.422-.394.737-.726.94-1.008.202-.28.303-.517.303-.714 0-.197-.096-.36-.281-.495-.192-.135-.49-.237-.895-.293 0-.152.017-.247.045-.281.028-.04.118-.056.27-.056h1.131c.315.017.816.022 1.497.022.45-.017.911-.022 1.378-.022l.636-.023c0 .152-.011.253-.034.304-.022.05-.101.096-.236.124a2.03 2.03 0 0 0-.568.225c-.18.107-.405.259-.67.461-.264.203-.568.445-.917.715l-3.168 2.695.884-1.176 3.437 5.047c.35.5.636.855.873 1.063.236.214.49.355.76.433 0 .164-.018.27-.046.316-.028.045-.112.067-.247.067-.225 0-.417-.006-.563-.022-.27 0-.568-.006-.883-.023a17.8 17.8 0 0 1-.906.023 5.622 5.622 0 0 1-.585.022c-.26 0-.467-.028-.636-.09l-.006-.006ZM123.951 107.437c.028-.062.096-.1.203-.112.287-.045.495-.107.624-.18.13-.073.214-.208.259-.4.045-.185.067-.484.067-.894v-4.755c0-.377-.033-.67-.1-.883a1.183 1.183 0 0 0-.35-.535c-.168-.146-.422-.275-.77-.399a.48.48 0 0 1 .033-.281c.04-.068.118-.124.237-.17l3.19-1.333a4.78 4.78 0 0 1 .517-.157c.135-.028.287-.045.45-.045a30.767 30.767 0 0 0-.044 1.767v6.79c0 .423.028.727.078.918.05.191.158.32.315.394.158.073.417.13.782.157 0 .18-.016.298-.045.349-.028.05-.112.079-.247.079l-.906-.023c-.54 0-1.092-.005-1.654-.022l-1.542.022c-.287.017-.67.023-1.153.023 0-.152.017-.259.045-.315l.011.005Zm1.356-12.721c-.287-.304-.428-.68-.428-1.131 0-.484.186-.9.563-1.243a1.966 1.966 0 0 1 1.334-.54c.438.016.804.168 1.097.46.292.293.439.67.439 1.12 0 .484-.192.895-.569 1.233a2.3 2.3 0 0 1-1.378.58 1.506 1.506 0 0 1-1.064-.473l.006-.006ZM130.748 107.437a.25.25 0 0 1 .191-.112c.242-.045.428-.101.568-.169a.495.495 0 0 0 .27-.304c.045-.135.068-.332.068-.585v-5.16c0-.376-.034-.669-.101-.883a1.183 1.183 0 0 0-.35-.534c-.162-.147-.421-.282-.77-.417a.461.461 0 0 1 .034-.27c.034-.073.118-.135.236-.18l3.168-1.339a3.36 3.36 0 0 1 .461-.146c.113-.023.253-.034.417-.034.016.86.028 1.424.045 1.7l.022.224v7.062c0 .27.023.472.068.602.045.129.14.225.28.292.142.068.372.124.693.169.017.152 0 .259-.034.315-.04.062-.135.09-.281.09l-.658-.022c-.574 0-1.154-.006-1.745-.023-.495.017-1.001.023-1.519.023-.287.016-.664.022-1.13.022 0-.152.016-.259.056-.315l.01-.006Zm6.24 0c.028-.062.095-.1.202-.112.259-.062.45-.146.58-.248.129-.107.22-.27.27-.49.05-.219.078-.55.078-1.006v-4.935c0-.574-.129-.973-.382-1.198-.253-.225-.647-.338-1.176-.338-.27 0-.551.028-.838.079-.287.056-.591.135-.906.236l-.158-.337c.71-.574 1.39-1.013 2.037-1.323a4.524 4.524 0 0 1 1.97-.46c.815 0 1.456.219 1.923.657.467.44.704 1.098.704 1.97v6.065c0 .349.028.613.09.793a.62.62 0 0 0 .315.383c.152.073.377.13.68.157 0 .18-.016.299-.044.35-.028.05-.113.078-.248.078l-.613-.022c-.62 0-1.238-.006-1.857-.023l-1.542.023c-.286.016-.663.022-1.13.022 0-.152.016-.259.045-.315v-.006ZM144.465 107.46c-.281-.287-.416-.664-.416-1.131 0-.467.169-.889.512-1.221a1.675 1.675 0 0 1 1.21-.495c.466 0 .866.146 1.153.444.287.293.427.681.427 1.165s-.18.883-.534 1.198a1.804 1.804 0 0 1-1.232.479c-.467 0-.844-.147-1.12-.434v-.005ZM153.687 107.899c-.045-.05-.073-.158-.09-.304a42.53 42.53 0 0 0-.09-1.277 82.696 82.696 0 0 0-.158-1.688c-.045-.45-.084-.85-.112-1.187-.028-.338-.05-.591-.068-.76 0-.135.034-.23.102-.281.067-.051.19-.08.37-.08.558 1.706 1.222 2.927 1.993 3.67.77.736 1.704 1.108 2.807 1.108.782 0 1.407-.225 1.868-.681.462-.456.692-1.063.692-1.834 0-.546-.146-1.024-.444-1.452a4.568 4.568 0 0 0-1.086-1.097 25.264 25.264 0 0 0-1.778-1.142 21.232 21.232 0 0 1-2.104-1.334 5.342 5.342 0 0 1-1.345-1.468c-.371-.591-.557-1.277-.557-2.06 0-.782.208-1.536.624-2.205.417-.67 1.008-1.204 1.778-1.61.771-.399 1.643-.601 2.628-.601.315 0 .63.028.94.09.309.062.613.118.917.18.163.062.32.107.461.135.14.028.276.045.394.045a.79.79 0 0 0 .371-.079c.096-.05.214-.13.35-.236.134-.118.241-.18.314-.18.062 0 .107.028.135.078.028.051.045.124.045.214.028.422.079.946.147 1.564.067.62.129 1.216.19 1.79l.09.86c0 .107-.033.18-.1.226-.068.045-.18.067-.327.067-.467-1.39-1.035-2.397-1.71-3.021-.67-.625-1.435-.94-2.296-.94-.636 0-1.164.203-1.598.602-.427.4-.647.912-.647 1.525 0 .512.14.968.428 1.367.287.4.647.748 1.074 1.052.428.304 1.013.664 1.756 1.086.878.512 1.587.968 2.127 1.356a5.337 5.337 0 0 1 1.378 1.48c.377.596.569 1.294.569 2.093 0 .979-.242 1.851-.726 2.605a4.812 4.812 0 0 1-1.98 1.744c-.84.405-1.779.613-2.82.613a6.45 6.45 0 0 1-1.018-.078 23.573 23.573 0 0 1-1.131-.237c-.495-.135-.855-.202-1.063-.202-.18 0-.338.034-.467.101-.13.068-.254.163-.372.281a.465.465 0 0 1-.146.135.313.313 0 0 1-.146.045.234.234 0 0 1-.18-.078h.01ZM166.87 107.539c-.372-.31-.557-.827-.557-1.553v-8.462h5.93l.067.135-.18.478c-.061.163-.135.281-.225.349a.547.547 0 0 1-.337.1h-6.29a.705.705 0 0 1-.248-.033c-.062-.022-.09-.062-.09-.124a.3.3 0 0 1 .067-.18c.045-.062.135-.146.27-.247l.158-.113 2.605-2.262c.315-.287.568-.483.76-.59.185-.107.416-.158.692-.158v10.409c0 .422.078.715.236.883.157.164.433.248.827.248.304 0 .58-.034.838-.101.26-.068.49-.147.704-.237.062-.045.112-.084.157-.112a.275.275 0 0 1 .102.124.344.344 0 0 1-.011.315.54.54 0 0 1-.158.169l-.113.09c-.439.36-.99.675-1.665.94-.67.264-1.34.393-2.003.393-.664 0-1.16-.152-1.525-.461h-.011ZM174.837 107.629a2.593 2.593 0 0 1-.94-.94c-.242-.405-.36-.872-.36-1.401s.14-.956.428-1.288c.287-.332.816-.681 1.586-1.041l2.943-1.52c.135-.09.242-.174.315-.258a.725.725 0 0 0 .158-.315c.028-.13.045-.299.045-.512 0-.512-.135-.872-.405-1.086-.27-.214-.754-.315-1.446-.315-.546 0-1.092.084-1.655.258a7.964 7.964 0 0 0-1.468.602c-.09-.258-.113-.45-.068-.59.045-.135.197-.282.45-.428a8.91 8.91 0 0 1 2.229-1.086 7.751 7.751 0 0 1 2.43-.405c1.013 0 1.772.203 2.284.613.512.405.771 1.064.771 1.97v5.66c0 .287.04.49.113.613.073.118.214.18.405.18.214 0 .495-.073.86-.225.046.09.068.191.068.293 0 .09-.033.163-.101.225a2.161 2.161 0 0 1-.371.247c-.44.26-.962.501-1.57.737-.613.237-1.075.35-1.39.35-.315 0-.58-.186-.748-.552-.163-.371-.287-.872-.36-1.508h-.023c-.636.737-1.176 1.266-1.62 1.587-.445.315-.89.472-1.322.472-.434 0-.85-.107-1.233-.326l-.005-.011Zm3.466-1.846c.22-.18.394-.427.523-.737.13-.31.191-.653.191-1.03v-2.104l-1.266.658c-.495.27-.844.54-1.03.816-.19.27-.28.636-.28 1.086 0 .45.1.827.303 1.131.203.304.473.45.805.45.287 0 .54-.09.76-.27h-.006ZM184.503 107.437a.25.25 0 0 1 .191-.112c.242-.045.428-.101.569-.169a.495.495 0 0 0 .27-.304c.045-.135.067-.332.067-.585v-5.16c0-.376-.034-.669-.101-.883a1.183 1.183 0 0 0-.349-.534c-.169-.147-.422-.282-.77-.417a.461.461 0 0 1 .033-.27c.034-.073.118-.135.236-.18l3.168-1.339c.197-.073.349-.124.467-.146.113-.023.253-.034.416-.034.017.86.029 1.424.045 1.7l.023.224v7.062c0 .27.022.472.067.602.045.129.141.225.282.292.14.068.371.124.692.169.017.152 0 .259-.034.315-.04.062-.13.09-.281.09l-.659-.022c-.573 0-1.153-.006-1.744-.023-.495.017-1.001.023-1.519.023-.287.016-.664.022-1.13.022 0-.152.016-.259.055-.315l.006-.006Zm6.234 0c.028-.062.096-.1.203-.112.259-.062.45-.146.58-.248.129-.101.219-.27.27-.49.05-.219.078-.55.078-1.006v-4.935c0-.574-.13-.973-.383-1.198-.253-.225-.647-.338-1.175-.338-.27 0-.552.028-.839.079-.287.056-.59.135-.906.236l-.157-.337c.709-.574 1.39-1.013 2.037-1.323a4.524 4.524 0 0 1 1.969-.46c.816 0 1.457.219 1.924.657.467.44.703 1.098.703 1.97v6.065c0 .349.029.613.09.793a.62.62 0 0 0 .316.383c.151.073.376.13.68.157 0 .18-.017.299-.045.35-.028.05-.112.078-.247.078l-.614-.022c-.618 0-1.237-.006-1.856-.023l-1.542.023c-.287.016-.664.022-1.13.022 0-.152.016-.259.044-.315v-.006ZM199.295 107.404c-.602-.372-1.08-.918-1.435-1.643-.354-.726-.534-1.57-.534-2.538 0-1.114.247-2.127.737-3.021a5.536 5.536 0 0 1 2.025-2.127c.861-.518 1.829-.782 2.898-.782.287 0 .58.028.872.079.293.05.568.118.827.19V93.85c0-.36-.04-.652-.112-.872a1.11 1.11 0 0 0-.383-.534c-.18-.135-.439-.27-.77-.405 0-.118.016-.214.055-.282.04-.067.119-.123.237-.168l3.393-1.34c.213-.073.382-.123.517-.146a2.46 2.46 0 0 1 .405-.034 6.75 6.75 0 0 0-.146.996c-.022.332-.034.771-.034 1.311v12.812c0 .36.034.641.102.838a.755.755 0 0 0 .393.439c.197.101.49.163.884.191 0 .152-.017.26-.045.315-.028.057-.118.096-.27.113l-3.736.77-.225-.157-.248-1.4c-.636.483-1.272.877-1.913 1.186-.641.31-1.165.462-1.575.462-.681 0-1.323-.186-1.925-.552l.006.012Zm4.912-1.688c.315-.394.473-.934.473-1.632v-3.533c0-.816-.18-1.435-.535-1.857a1.707 1.707 0 0 0-1.367-.636c-.664 0-1.187.338-1.564 1.007-.377.675-.569 1.666-.569 2.977 0 .872.096 1.631.282 2.273.185.641.45 1.13.793 1.468.343.338.748.512 1.232.512.512 0 .929-.197 1.244-.59l.01.01ZM216.259 107.302a4.864 4.864 0 0 1-1.88-1.834c-.46-.782-.691-1.682-.691-2.695a5.3 5.3 0 0 1 .748-2.774 5.484 5.484 0 0 1 2.014-1.98 5.374 5.374 0 0 1 2.718-.726c.967 0 1.834.214 2.616.647a4.817 4.817 0 0 1 1.845 1.79c.45.759.681 1.603.681 2.52 0 1.069-.236 2.042-.714 2.909a5.327 5.327 0 0 1-1.947 2.048 5.23 5.23 0 0 1-2.751.748c-1.013 0-1.846-.22-2.64-.658v.005Zm4.422-1.018c.287-.557.428-1.379.428-2.464 0-.951-.085-1.857-.259-2.73-.174-.866-.45-1.575-.827-2.126-.377-.551-.833-.827-1.356-.827-.59 0-1.035.259-1.345.782-.31.523-.467 1.333-.467 2.43 0 .935.096 1.846.282 2.73.185.883.472 1.609.86 2.182.383.574.856.861 1.413.861s.979-.281 1.266-.838h.005ZM227.292 107.257c-.45-.467-.68-1.17-.68-2.104v-4.051c0-.377-.034-.67-.102-.883a1.16 1.16 0 0 0-.36-.535c-.174-.146-.427-.281-.76-.416-.028-.107-.022-.197.023-.27a.482.482 0 0 1 .248-.18l3.19-1.34a3.36 3.36 0 0 1 .461-.146c.113-.022.27-.034.467-.034v7.264c0 .574.113.98.338 1.21.225.23.557.349.996.349.59 0 1.22-.175 1.901-.524l.203.338a10.42 10.42 0 0 1-2.026 1.463 4.382 4.382 0 0 1-2.115.551c-.726 0-1.334-.236-1.79-.703l.006.011Zm5.7.473-.27-1.469-.045-.247v-4.912c0-.377-.034-.67-.101-.883a1.209 1.209 0 0 0-.338-.535c-.158-.146-.405-.281-.737-.416 0-.107.017-.197.056-.27a.41.41 0 0 1 .214-.18l3.168-1.34a3.36 3.36 0 0 1 .461-.146c.113-.022.259-.034.439-.034v7.652c0 .35.028.614.09.805a.78.78 0 0 0 .36.445c.18.106.45.19.816.247 0 .152-.017.259-.045.315-.028.062-.107.107-.225.135l-3.601 1.019-.248-.18.006-.006ZM239.704 107.539c-.371-.31-.557-.827-.557-1.553v-8.462h5.93l.068.135-.18.478c-.062.163-.135.281-.225.349a.547.547 0 0 1-.338.1h-6.29a.705.705 0 0 1-.248-.033c-.061-.022-.09-.062-.09-.124a.3.3 0 0 1 .068-.18c.045-.062.135-.146.27-.247l.158-.113 2.605-2.262c.315-.287.568-.483.76-.59.185-.107.416-.158.691-.158v10.409c0 .422.079.715.237.883.157.164.433.248.827.248.303 0 .58-.034.838-.101.259-.068.49-.147.703-.237.062-.045.113-.084.158-.112a.275.275 0 0 1 .101.124c.023.05.034.1.034.146a.344.344 0 0 1-.045.169.54.54 0 0 1-.158.169l-.112.09c-.44.36-.99.675-1.666.94-.67.264-1.339.393-2.003.393-.664 0-1.159-.152-1.524-.461h-.012ZM247.216 107.46c-.282-.287-.417-.664-.417-1.131 0-.467.17-.889.512-1.221a1.675 1.675 0 0 1 1.21-.495c.467 0 .866.146 1.153.444.287.293.428.681.428 1.165s-.18.883-.535 1.198a1.804 1.804 0 0 1-1.232.479c-.467 0-.844-.147-1.12-.434v-.005Z"
		></path>
	</g>
</svg>
